<svg xmlns="http://www.w3.org/2000/svg" width="1176" height="292" viewBox="0 0 1176 292"><rect width="1176" height="292" rx="5" fill="#282a36"/><circle cx="20" cy="20" r="6" fill="#ff5f58"/><circle cx="40" cy="20" r="6" fill="#ffbd2e"/><circle cx="60" cy="20" r="6" fill="#18c132"/><svg x="55" y="70" width="1056" height="192" viewBox="0 0 1056 192" overflow="hidden"><style>@keyframes a{0%{transform:translateX(-0px)}3.842652%{transform:translateX(-1056px)}5.226735%{transform:translateX(-2112px)}6.610818%{transform:translateX(-3168px)}7.994901%{transform:translateX(-4224px)}10.744855%{transform:translateX(-5280px)}12.128938%{transform:translateX(-6336px)}13.49481%{transform:translateX(-7392px)}14.860681%{transform:translateX(-8448px)}16.244764%{transform:translateX(-9504px)}17.610636%{transform:translateX(-10560px)}18.976507%{transform:translateX(-11616px)}20.36059%{transform:translateX(-12672px)}23.110545%{transform:translateX(-13728px)}24.476416%{transform:translateX(-14784px)}25.878711%{transform:translateX(-15840px)}27.262794%{transform:translateX(-16896px)}28.646877%{transform:translateX(-17952px)}30.03096%{transform:translateX(-19008px)}32.744491%{transform:translateX(-20064px)}34.128574%{transform:translateX(-21120px)}35.476234%{transform:translateX(-22176px)}38.2444%{transform:translateX(-23232px)}39.628483%{transform:translateX(-24288px)}41.012566%{transform:translateX(-25344px)}42.378437%{transform:translateX(-26400px)}43.76252%{transform:translateX(-27456px)}45.128392%{transform:translateX(-28512px)}100%{transform:translateX(-28512px)}}.r{animation:a 5.491s steps(1,end) infinite}.s0{fill:#50fa7b}text{white-space:pre;font-kerning:none;font-variant-ligatures:none;font-synthesis:none;font-optical-sizing:none;-webkit-font-smoothing:antialiased;text-rendering:optimizeLegibility;text-decoration-skip-ink:none;text-decoration-thickness:1px;text-underline-offset:2px;letter-spacing:0px}</style><g font-family="&apos;JetBrains Mono&apos;,&apos;JetBrains Mono&apos;,&apos;Cascadia Mono&apos;,&apos;Noto Sans Mono&apos;,&apos;Liberation Mono&apos;,&apos;Roboto Mono&apos;,&apos;Menlo&apos;,&apos;DejaVu Sans Mono&apos;,&apos;SF Mono&apos;,&apos;Consolas&apos;,&apos;Symbols Nerd Font Mono&apos;,&apos;Symbols Nerd Font&apos;,&apos;Powerline Symbols&apos;,&apos;Apple Symbols&apos;,&apos;Segoe UI Symbol&apos;,&apos;Noto Sans Symbols 2&apos;,&apos;Noto Sans Symbols&apos;,&apos;Apple Color Emoji&apos;,&apos;Segoe UI Emoji&apos;,&apos;Noto Color Emoji&apos;,monospace" font-size="40" fill="#f8f8f2" shape-rendering="crispEdges"><defs><g id="c"><rect width="24" height="48" fill="#6272a4"/></g><g id="l0"><text y="40" class="s0">❯</text></g><g id="l1"><text y="40" class="s0">❯</text><text x="48" y="40">echo "framed, padded and calm"</text></g></defs><g class="r"><g transform="translate(0 0)"><use href="#l0" y="0"/></g><g transform="translate(1056 0)"><g transform="translate(0 0)"><text y="40" class="s0">❯</text><text x="48" y="40">e</text></g></g><g transform="translate(2112 0)"><g transform="translate(0 0)"><text y="40" class="s0">❯</text><text x="48" y="40">ec</text></g></g><g transform="translate(3168 0)"><g transform="translate(0 0)"><text y="40" class="s0">❯</text><text x="48" y="40">ech</text></g></g><g transform="translate(4224 0)"><g transform="translate(0 0)"><text y="40" class="s0">❯</text><text x="48" y="40">echo</text></g></g><g transform="translate(5280 0)"><g transform="translate(0 0)"><text y="40" class="s0">❯</text><text x="48" y="40">echo "</text></g></g><g transform="translate(6336 0)"><g transform="translate(0 0)"><text y="40" class="s0">❯</text><text x="48" y="40">echo "f</text></g></g><g transform="translate(7392 0)"><g transform="translate(0 0)"><text y="40" class="s0">❯</text><text x="48" y="40">echo "fr</text></g></g><g transform="translate(8448 0)"><g transform="translate(0 0)"><text y="40" class="s0">❯</text><text x="48" y="40">echo "fra</text></g></g><g transform="translate(9504 0)"><g transform="translate(0 0)"><text y="40" class="s0">❯</text><text x="48" y="40">echo "fram</text></g></g><g transform="translate(10560 0)"><g transform="translate(0 0)"><text y="40" class="s0">❯</text><text x="48" y="40">echo "frame</text></g></g><g transform="translate(11616 0)"><g transform="translate(0 0)"><text y="40" class="s0">❯</text><text x="48" y="40">echo "framed</text></g></g><g transform="translate(12672 0)"><g transform="translate(0 0)"><text y="40" class="s0">❯</text><text x="48" y="40">echo "framed,</text></g></g><g transform="translate(13728 0)"><g transform="translate(0 0)"><text y="40" class="s0">❯</text><text x="48" y="40">echo "framed, p</text></g></g><g transform="translate(14784 0)"><g transform="translate(0 0)"><text y="40" class="s0">❯</text><text x="48" y="40">echo "framed, pa</text></g></g><g transform="translate(15840 0)"><g transform="translate(0 0)"><text y="40" class="s0">❯</text><text x="48" y="40">echo "framed, pad</text></g></g><g transform="translate(16896 0)"><g transform="translate(0 0)"><text y="40" class="s0">❯</text><text x="48" y="40">echo "framed, padd</text></g></g><g transform="translate(17952 0)"><g transform="translate(0 0)"><text y="40" class="s0">❯</text><text x="48" y="40">echo "framed, padde</text></g></g><g transform="translate(19008 0)"><g transform="translate(0 0)"><text y="40" class="s0">❯</text><text x="48" y="40">echo "framed, padded</text></g></g><g transform="translate(20064 0)"><g transform="translate(0 0)"><text y="40" class="s0">❯</text><text x="48" y="40">echo "framed, padded a</text></g></g><g transform="translate(21120 0)"><g transform="translate(0 0)"><text y="40" class="s0">❯</text><text x="48" y="40">echo "framed, padded an</text></g></g><g transform="translate(22176 0)"><g transform="translate(0 0)"><text y="40" class="s0">❯</text><text x="48" y="40">echo "framed, padded and</text></g></g><g transform="translate(23232 0)"><g transform="translate(0 0)"><text y="40" class="s0">❯</text><text x="48" y="40">echo "framed, padded and c</text></g></g><g transform="translate(24288 0)"><g transform="translate(0 0)"><text y="40" class="s0">❯</text><text x="48" y="40">echo "framed, padded and ca</text></g></g><g transform="translate(25344 0)"><g transform="translate(0 0)"><text y="40" class="s0">❯</text><text x="48" y="40">echo "framed, padded and cal</text></g></g><g transform="translate(26400 0)"><g transform="translate(0 0)"><text y="40" class="s0">❯</text><text x="48" y="40">echo "framed, padded and calm</text></g></g><g transform="translate(27456 0)"><use href="#l1" y="0"/></g><g transform="translate(28512 0)"><use href="#l1" y="0"/><g transform="translate(0 48)"><text y="40">framed, padded and calm</text></g><use href="#l0" y="96"/></g></g></g></svg></svg>